<svg width="500" height="500" viewBox="0 0 500 500" xmlns="http://www.w3.org/2000/svg">
  <path
    fill="#C5A572"
    d="M250 25
    C380 25 480 125 480 250
    C480 380 380 480 250 480
    C125 480 25 380 25 250
    C25 125 125 25 250 25
    M250 75
    C150 75 75 150 75 250
    C75 350 150 425 250 425
    C350 425 425 350 425 250
    C425 150 350 75 250 75
    M250 125
    C325 125 375 175 375 250
    C375 325 325 375 250 375
    C175 375 125 325 125 250
    C125 175 175 125 250 125
    Z"
  />
</svg> 